<?xml version="1.0" standalone="no"?>
<!DOCTYPE svg PUBLIC "-//W3C//DTD SVG 20010904//EN"
 "http://www.w3.org/TR/2001/REC-SVG-20010904/DTD/svg10.dtd">
<svg version="1.0" xmlns="http://www.w3.org/2000/svg"
 width="300.000000pt" height="148.000000pt" viewBox="0 0 300.000000 148.000000"
 preserveAspectRatio="xMidYMid meet">
<metadata>
Created by potrace 1.10, written by Peter Selinger 2001-2011
</metadata>
<g transform="translate(0.000000,148.000000) scale(0.100000,-0.100000)"
fill="#ffffff" stroke="none">
<path d="M1974 1247 c-28 -28 -70 -77 -95 -107 -24 -30 -49 -61 -56 -67 -6 -7
-53 -69 -104 -138 -51 -69 -97 -125 -103 -125 -6 0 -29 25 -51 56 -105 148
-112 155 -163 155 -26 0 -128 2 -226 5 -197 5 -227 0 -245 -44 -6 -15 -10 -85
-10 -157 1 -288 -1 -356 -11 -350 -6 4 -83 115 -171 248 -153 231 -213 307
-242 307 -23 0 -56 -39 -62 -72 -3 -18 -5 -148 -3 -289 3 -236 5 -259 22 -278
24 -26 48 -27 71 -1 16 18 19 41 21 163 4 263 3 251 18 238 14 -12 43 -53 184
-261 104 -153 266 -361 323 -415 l42 -40 -23 35 c-13 19 -65 91 -115 160 -93
128 -307 437 -409 590 l-56 85 0 -273 c0 -265 0 -272 -20 -272 -20 0 -20 7
-20 295 l0 295 24 0 c19 0 47 -35 159 -202 415 -619 457 -681 464 -675 6 7
-47 109 -91 177 -41 62 -42 67 -18 74 15 5 279 9 383 7 31 -1 42 5 75 42 21
24 61 76 88 116 27 39 53 71 57 71 12 0 30 -21 79 -91 56 -79 113 -139 133
-139 8 0 25 9 38 19 l24 19 -23 44 c-12 23 -56 88 -97 143 -41 55 -74 105 -74
110 -1 9 123 193 149 223 6 7 16 9 22 6 6 -4 47 -10 92 -13 l81 -6 5 -257 c5
-242 6 -258 25 -272 27 -21 38 -20 63 7 21 22 22 33 24 272 l3 250 81 5 c84 5
114 18 114 50 0 10 -12 28 -26 39 -25 20 -40 21 -215 21 -124 0 -189 4 -189
10 0 6 8 23 19 38 69 101 139 234 104 197 -33 -34 -396 -557 -396 -570 0 -8
158 -233 205 -293 8 -9 4 -12 -14 -12 -20 0 -41 23 -109 117 -46 64 -90 127
-97 140 -13 23 -16 20 -114 -116 -67 -93 -108 -141 -120 -141 -10 0 -18 3 -18
8 0 4 47 71 105 150 58 78 105 144 105 147 0 2 -43 64 -96 136 -111 152 -114
158 -82 152 16 -3 52 -45 114 -134 l91 -129 28 43 c16 23 109 149 207 280 99
132 178 241 176 243 -2 2 -27 -20 -54 -49z m-616 -273 c-3 -14 -26 -16 -180
-15 l-178 2 0 -118 0 -118 167 0 c152 0 168 -2 171 -17 3 -17 -10 -18 -167
-18 l-171 0 0 -127 0 -128 180 3 c176 3 180 3 180 -17 0 -21 -5 -21 -200 -21
l-200 0 0 295 0 295 201 0 c178 0 200 -2 197 -16z m962 1 c0 -12 -18 -15 -106
-15 l-105 0 3 -280 c3 -274 3 -280 -17 -280 -20 0 -20 6 -17 280 l3 280 -105
0 c-88 0 -106 3 -106 15 0 13 32 15 225 15 193 0 225 -2 225 -15z m-861 -146
c45 -62 81 -117 81 -124 0 -7 -22 -41 -48 -76 -26 -35 -62 -86 -80 -112 l-33
-47 -159 0 c-118 0 -162 3 -172 13 -9 10 -12 34 -8 91 l5 78 136 2 c119 1 140
3 158 20 26 23 27 48 3 69 -14 13 -45 17 -157 19 l-140 3 0 75 0 75 150 3 c82
1 154 7 159 12 6 6 13 10 17 10 4 0 44 -50 88 -111z"/>
<path d="M2470 600 c-8 -5 -25 -7 -37 -4 -25 7 -63 -26 -63 -55 0 -23 -17 -38
-49 -43 -32 -4 -50 -32 -35 -55 14 -22 97 -37 134 -24 16 5 33 5 41 0 24 -15
65 -10 93 12 25 20 27 26 22 76 -7 81 -56 125 -106 93z m-40 -78 c0 -32 -5
-63 -12 -70 -17 -17 -43 -15 -58 3 -16 20 -5 32 14 16 24 -20 37 -2 36 48 -2
59 -2 61 10 61 6 0 10 -26 10 -58z m101 48 c10 -6 19 -17 19 -25 0 -19 -8 -19
-27 0 -18 18 -38 15 -38 -5 0 -8 11 -17 24 -20 13 -3 29 -13 35 -23 25 -39
-38 -74 -79 -43 -27 19 -11 33 19 17 24 -13 46 -8 46 9 0 5 -16 14 -35 20 -26
9 -35 17 -35 34 0 40 32 57 71 36z m-201 -115 c0 -8 -7 -15 -15 -15 -8 0 -15
7 -15 15 0 8 7 15 15 15 8 0 15 -7 15 -15z"/>
</g>
</svg>
