<?xml version="1.0" standalone="no"?>
<!DOCTYPE svg PUBLIC "-//W3C//DTD SVG 20010904//EN"
 "http://www.w3.org/TR/2001/REC-SVG-20010904/DTD/svg10.dtd">
<svg version="1.0" xmlns="http://www.w3.org/2000/svg"
 width="175.000000pt" height="71.000000pt" viewBox="0 0 175.000000 71.000000"
 preserveAspectRatio="xMidYMid meet">
<metadata>
Created by potrace 1.10, written by Peter Selinger 2001-2011
</metadata>
<g transform="translate(0.000000,71.000000) scale(0.100000,-0.100000)"
fill="#ffffff" stroke="none">
<path d="M200 360 l0 -180 33 0 33 0 -4 65 -4 65 54 0 54 0 38 -65 c35 -60 40
-65 73 -65 l35 0 -23 38 c-12 20 -33 51 -46 69 -23 32 -23 32 -2 38 26 9 59
62 59 98 0 43 -28 87 -65 103 -22 9 -71 14 -135 14 l-100 0 0 -180z m220 100
c11 -11 20 -27 20 -35 0 -8 -9 -24 -20 -35 -16 -16 -33 -20 -90 -20 l-70 0 0
55 0 55 70 0 c57 0 74 -4 90 -20z"/>
<path d="M1440 480 c0 -36 -2 -40 -25 -40 -20 0 -25 -5 -25 -25 0 -20 5 -25
25 -25 25 0 25 -1 25 -85 0 -71 3 -88 20 -105 39 -39 123 -41 128 -2 3 19 -1
22 -30 22 -18 0 -38 4 -44 8 -7 4 -13 42 -16 85 l-3 77 42 0 c39 0 43 2 43 25
0 23 -4 25 -44 25 l-44 0 5 40 c6 39 5 40 -26 40 -30 0 -31 -2 -31 -40z"/>
<path d="M604 431 c-58 -35 -79 -136 -42 -204 14 -28 69 -57 106 -57 37 0 102
24 102 38 0 21 -28 34 -49 23 -36 -20 -78 -13 -100 15 -12 15 -21 31 -21 35 0
5 43 9 95 9 l95 0 0 31 c0 102 -101 162 -186 110z m108 -48 c38 -45 32 -53
-42 -53 -39 0 -70 4 -70 9 0 4 9 20 21 35 24 31 68 35 91 9z"/>
<path d="M883 430 c-36 -22 -40 -32 -18 -50 11 -9 19 -8 37 4 44 31 108 9 108
-37 0 -14 -10 -17 -52 -17 -92 0 -139 -44 -117 -108 18 -53 104 -68 151 -25
17 15 18 15 18 0 0 -12 9 -17 31 -17 l31 0 -4 106 c-4 105 -4 106 -36 135 -40
36 -100 39 -149 9z m127 -153 c0 -25 -46 -59 -75 -55 -36 4 -54 30 -36 52 17
21 111 23 111 3z"/>
<path d="M1179 427 c-55 -37 -73 -133 -38 -199 16 -29 70 -58 109 -58 35 0
101 28 107 46 2 5 -6 15 -18 22 -18 11 -24 11 -38 -2 -25 -23 -74 -20 -97 5
-13 15 -19 36 -19 69 0 80 50 112 115 73 24 -14 31 -14 44 -3 19 15 8 33 -35
56 -41 21 -91 17 -130 -9z"/>
</g>
</svg>
