<svg version="1.0" xmlns="http://www.w3.org/2000/svg" width="258" height="110.667" viewBox="0 0 261 122"><g fill="#fff"><path d="M58.4 8c-3.9 1.5-6 6.3-12.4 28-3.5 11.8-6.9 22.1-7.6 22.9-1.2 1.4-1.9-.5-10.5-29.2C22 9.8 20.9 8 14.2 8 10.7 8 5 12.5 5 15.2 5 17 8.5 29.6 11.5 39c2.2 6.8 13.3 42.6 15.7 50.8.5 1.8 2.2 4.7 3.8 6.5 3.6 4.1 9.5 4.4 13.4.8 2.8-2.7 3.9-5.2 9.1-22.6 6.4-21 8.9-28.5 9.6-28.5.4 0 .9 7.8 1.1 17.2.4 19.8 1.2 22.2 9.1 29.5 12.7 11.7 32.1 8.2 40.9-7.4 1.6-2.9 3.2-5.3 3.4-5.3s1.1 1.7 1.9 3.7c2.2 5.3 7.9 10.8 13.9 13.4 7.2 3.2 20.3 3.2 26.2.1 2.3-1.2 5-2.9 5.9-3.9 1.7-1.6 1.8-1.5 3.7 1 4.3 5.9 10.9 6.7 15.9 2.1 3-2.9 3.9-2.3 3.9 2.3 0 4.5-1.4 6.9-5.1 8.8-1.6.9-3.7 3.1-4.5 4.9-1.5 3-1.5 3.6 0 6.4l1.7 3.2h8.2c7.8 0 8.5-.2 10.9-2.8 1.4-1.5 3.3-4.2 4.2-6 1.4-2.8 3.5-14 3.6-19.6 0-1.8.1-1.8 1.8-.3 3.1 2.8 10.8 5.7 16.9 6.3 9.1 1 16.1-1.4 21.2-7.2 4.5-5.1 5.7-9.2 4.7-15.8-1.3-8.6-8.1-14.9-18.9-17.7-5-1.2-7.3-3.1-6.2-5 .7-1.1 2.8-1 14.6.8 3.1.4 3.9.1 6.2-2.7 3.6-4.2 3.4-7.5-.6-11.5-6-6-20.4-7.1-29.2-2.2-2.1 1.2-5.3 4.1-7.1 6.4l-3.2 4.2-1.1-4.4c-2.1-8.3-9.7-11.1-15.2-5.6l-2.9 2.9v20.5c0 11.2-.3 20.7-.7 21-.4.4-1.9-.5-3.5-2-3.6-3.5-8.5-3.6-12.9-.4-2.1 1.6-3.6 2.1-4.4 1.5-6.8-5.1-6.4-4.9-11.4-2.9-6.7 2.7-14.4 2.6-17.3-.3-3.4-3.4-1.2-4.2 12-4.2H162l3.7-3.3c3.1-2.9 3.7-4.1 4.1-8.9.8-10.6-4.5-20.1-14.2-25-5.8-3-17.5-3-23.2 0-3.9 2-13.4 11.6-13.4 13.5 0 .4-.4.5-1 .2-.5-.3-1-2.7-1-5.1 0-8.8-8.4-13.4-14.7-8l-2.8 2.4-.5 18c-.5 19-.9 20.5-5.7 22.3-3.4 1.3-7.9-.7-9.3-4.1-.7-1.8-1.3-9.3-1.5-19-.2-15.2-.3-16.2-2.5-18.5-3.4-3.6-8.1-4.2-12.4-1.6l-3.5 2.2 2.5-7.8c5.1-16.3 4.9-20.1-1.1-23.2C61.7 7.1 61 7 58.4 8m-40.8 3.8c1.2.8 17.6 53.1 19.7 62.7.5 2.5.7 1.9 4.2-10.5 1.4-5.2 4.1-14.5 6-20.5 1.9-6.1 4.8-15.6 6.5-21.2 2.4-7.7 3.6-10.4 5.1-10.8 3.3-1.1 6.8.3 7.5 2.9.8 3.5-21.5 77.4-24.3 80.2-1.8 1.7-7.7 1.9-9.1.1-.5-.6-1.5-3-2.1-5.3-.6-2.2-2.9-9.4-5-16C19.4 53.3 9 18 9 15.5c0-3.5 5.4-5.9 8.6-3.7m59.2 28.8c2.1 1.5 2.2 2.1 2.2 18.7 0 19.5.9 22.5 7.6 25.3 4.3 1.8 8 1.2 11.6-2 4.2-3.6 4.8-6.5 4.8-24.6 0-15.7.1-17 1.9-18 2.6-1.4 4.4-1.3 6.6.4 1.7 1.2 1.9 2.8 1.8 19.7-.1 10.4-.6 19.6-1.2 21.2C108.8 90 100 96 90.5 96 84 96 79 93.8 74.4 88.8c-6.1-6.4-6.4-7.9-6.4-28.4 0-16.6.2-18.8 1.8-20 2.3-1.8 4.3-1.7 7 .2m77.1.4c5.5 2.8 10.7 9.3 12.1 15 1.5 6.1.7 10-2.6 13.1-2.5 2.3-3.2 2.4-17.1 2.4h-14.5l.5 3.8c1.3 9.2 12.3 13.5 22.4 8.6 6.8-3.3 11.4-1.3 10 4.3-1.1 4.2-7 7-16 7.6-12.6.8-20.8-3.5-25.3-13.3-2-4.1-2.4-6.6-2.4-14.5 0-5.2.5-11.2 1.1-13.3 1.2-4.6 6.9-11.1 11.8-13.7 5-2.6 14.9-2.6 20 0m48.2.1c2 2 2.1 2.7 1.7 33.7-.3 27.7-.6 32.2-2.1 35.7-3.2 7.2-5.2 8.5-12.8 8.5-5.3 0-6.8-.3-7.3-1.6-.6-1.6 1.7-6.3 3.2-6.5 7.9-.8 7.7.2 8-36.7.2-29.1.5-32.8 1.9-34 2.4-1.8 5-1.5 7.4.9m38.2-1c7.1 2 9.3 6.5 5.1 10.9-1.2 1.2-2 1.2-6.1-.3-9.6-3.4-17.3-1.3-17.3 4.7 0 3.2 1.3 4.1 10.8 7.1 12.8 4 17 9.1 16 19.5-.9 9.2-7.5 14-19.4 14-12.7 0-22.9-7.4-17.9-13 2.3-2.6 3.9-2.5 7.8.2 4.1 2.9 13.6 3.7 17.2 1.4 1.7-1.1 2.5-2.6 2.5-4.6 0-3.6-2.1-5.1-11.7-8.4-3.9-1.3-8.3-3.2-9.7-4.1-7.3-4.8-7.8-17.5-1-23.7 5.3-4.7 14.8-6.2 23.7-3.7m-22.8 31.3c1.7.9 5.5 2.5 8.5 3.6 7.2 2.6 8.4 3.5 7.7 5.4-.9 2.3-7.9 2.1-12.7-.4-4.7-2.4-7.8-2.5-10.6-.5-1.2.8-2.3 1.3-2.5 1.1-.2-.3-.3-4.4-.1-9.2l.4-8.8 3.1 3.6c1.8 2 4.6 4.3 6.2 5.2M182.8 84c4.5 4.2 1.5 12-4.5 12-3.4 0-4.6-.8-6.2-3.7-1.6-3.1-1.4-4.7 1-7.7 2.5-3.2 6.6-3.4 9.7-.6"/><path d="M137.2 50.6c-2.6 1.8-5.2 6.5-5.2 9.4 0 1.9.6 2 12 2s12-.1 12-2c0-3.4-2.8-7.9-6-9.5-3.8-1.9-10-1.9-12.8.1m10.9 3.4c2.9 1.6 2.4 4-.8 4.1-1.6 0-4.1.2-5.6.3-4.3.3-5.5-.9-3.3-3.3 2.1-2.3 6.5-2.7 9.7-1.1m46.3-41.6c-4 1.8-6.4 5.2-6.4 9.1 0 4 2.1 6.8 6.4 8.9 3.1 1.4 3.9 1.5 6.8.3 4.4-1.8 5.9-3.8 6.5-8.7.5-3.7.2-4.3-3.1-7.5-4.1-3.8-5.5-4.1-10.2-2.1m8 4.1c2.6 2.7 2.9 5.6.9 8.4-2.9 3.8-7.4 4-10.2.5-2.7-3.4-2.7-5.8.1-8.4 2.6-2.4 7-2.6 9.2-.5"/></g></svg>