<?xml version="1.0" standalone="no"?>
<!DOCTYPE svg PUBLIC "-//W3C//DTD SVG 20010904//EN"
 "http://www.w3.org/TR/2001/REC-SVG-20010904/DTD/svg10.dtd">
<svg version="1.0" xmlns="http://www.w3.org/2000/svg"
 width="261.000000pt" height="122.000000pt" viewBox="0 0 261.000000 122.000000"
 preserveAspectRatio="xMidYMid meet">
<metadata>
Created by potrace 1.10, written by Peter Selinger 2001-2011
</metadata>
<g transform="translate(0.000000,122.000000) scale(0.100000,-0.100000)"
fill="#ffffff" stroke="none">
<path d="M584 1140 c-39 -15 -60 -63 -124 -280 -35 -118 -69 -221 -76 -229
-12 -14 -19 5 -105 292 -59 199 -70 217 -137 217 -35 0 -92 -45 -92 -72 0 -18
35 -144 65 -238 22 -68 133 -426 157 -508 5 -18 22 -47 38 -65 36 -41 95 -44
134 -8 28 27 39 52 91 226 64 210 89 285 96 285 4 0 9 -78 11 -172 4 -198 12
-222 91 -295 127 -117 321 -82 409 74 16 29 32 53 34 53 2 0 11 -17 19 -37 22
-53 79 -108 139 -134 72 -32 203 -32 262 -1 23 12 50 29 59 39 17 16 18 15 37
-10 43 -59 109 -67 159 -21 30 29 39 23 39 -23 0 -45 -14 -69 -51 -88 -16 -9
-37 -31 -45 -49 -15 -30 -15 -36 0 -64 l17 -32 82 0 c78 0 85 2 109 28 14 15
33 42 42 60 14 28 35 140 36 196 0 18 1 18 18 3 31 -28 108 -57 169 -63 91
-10 161 14 212 72 45 51 57 92 47 158 -13 86 -81 149 -189 177 -50 12 -73 31
-62 50 7 11 28 10 146 -8 31 -4 39 -1 62 27 36 42 34 75 -6 115 -60 60 -204
71 -292 22 -21 -12 -53 -41 -71 -64 l-32 -42 -11 44 c-21 83 -97 111 -152 56
l-29 -29 0 -205 c0 -112 -3 -207 -7 -210 -4 -4 -19 5 -35 20 -36 35 -85 36
-129 4 -21 -16 -36 -21 -44 -15 -68 51 -64 49 -114 29 -67 -27 -144 -26 -173
3 -34 34 -12 42 120 42 l112 0 37 33 c31 29 37 41 41 89 8 106 -45 201 -142
250 -58 30 -175 30 -232 0 -39 -20 -134 -116 -134 -135 0 -4 -4 -5 -10 -2 -5
3 -10 27 -10 51 0 88 -84 134 -147 80 l-28 -24 -5 -180 c-5 -190 -9 -205 -57
-223 -34 -13 -79 7 -93 41 -7 18 -13 93 -15 190 -2 152 -3 162 -25 185 -34 36
-81 42 -124 16 l-35 -22 25 78 c51 163 49 201 -11 232 -38 20 -45 21 -71 11z
m-408 -38 c12 -8 176 -531 197 -627 5 -25 7 -19 42 105 14 52 41 145 60 205
19 61 48 156 65 212 24 77 36 104 51 108 33 11 68 -3 75 -29 8 -35 -215 -774
-243 -802 -18 -17 -77 -19 -91 -1 -5 6 -15 30 -21 53 -6 22 -29 94 -50 160
-67 201 -171 554 -171 579 0 35 54 59 86 37z m592 -288 c21 -15 22 -21 22
-187 0 -195 9 -225 76 -253 43 -18 80 -12 116 20 42 36 48 65 48 246 0 157 1
170 19 180 26 14 44 13 66 -4 17 -12 19 -28 18 -197 -1 -104 -6 -196 -12 -212
-33 -87 -121 -147 -216 -147 -65 0 -115 22 -161 72 -61 64 -64 79 -64 284 0
166 2 188 18 200 23 18 43 17 70 -2z m771 -4 c55 -28 107 -93 121 -150 15 -61
7 -100 -26 -131 -25 -23 -32 -24 -171 -24 l-145 0 5 -38 c13 -92 123 -135 224
-86 68 33 114 13 100 -43 -11 -42 -70 -70 -160 -76 -126 -8 -208 35 -253 133
-20 41 -24 66 -24 145 0 52 5 112 11 133 12 46 69 111 118 137 50 26 149 26
200 0z m482 -1 c20 -20 21 -27 17 -337 -3 -277 -6 -322 -21 -357 -32 -72 -52
-85 -128 -85 -53 0 -68 3 -73 16 -6 16 17 63 32 65 79 8 77 -2 80 367 2 291 5
328 19 340 24 18 50 15 74 -9z m382 10 c71 -20 93 -65 51 -109 -12 -12 -20
-12 -61 3 -96 34 -173 13 -173 -47 0 -32 13 -41 108 -71 128 -40 170 -91 160
-195 -9 -92 -75 -140 -194 -140 -127 0 -229 74 -179 130 23 26 39 25 78 -2 41
-29 136 -37 172 -14 17 11 25 26 25 46 0 36 -21 51 -117 84 -39 13 -83 32 -97
41 -73 48 -78 175 -10 237 53 47 148 62 237 37z m-228 -313 c17 -9 55 -25 85
-36 72 -26 84 -35 77 -54 -9 -23 -79 -21 -127 4 -47 24 -78 25 -106 5 -12 -8
-23 -13 -25 -11 -2 3 -3 44 -1 92 l4 88 31 -36 c18 -20 46 -43 62 -52z m-347
-126 c45 -42 15 -120 -45 -120 -34 0 -46 8 -62 37 -16 31 -14 47 10 77 25 32
66 34 97 6z"/>
<path d="M1372 714 c-26 -18 -52 -65 -52 -94 0 -19 6 -20 120 -20 114 0 120 1
120 20 0 34 -28 79 -60 95 -38 19 -100 19 -128 -1z m109 -34 c29 -16 24 -40
-8 -41 -16 0 -41 -2 -56 -3 -43 -3 -55 9 -33 33 21 23 65 27 97 11z"/>
<path d="M1944 1096 c-40 -18 -64 -52 -64 -91 0 -40 21 -68 64 -89 31 -14 39
-15 68 -3 44 18 59 38 65 87 5 37 2 43 -31 75 -41 38 -55 41 -102 21z m80 -41
c26 -27 29 -56 9 -84 -29 -38 -74 -40 -102 -5 -27 34 -27 58 1 84 26 24 70 26
92 5z"/>
</g>
</svg>
